<svg width="16" height="16" viewBox="0 0 16 16" fill="none" xmlns="http://www.w3.org/2000/svg">
    <rect width="16" height="16" fill="white" fill-opacity="0.01" />
    <path fill-rule="evenodd" clip-rule="evenodd"
        d="M1.06667 10.1334C1.06667 11.0171 1.78301 11.7334 2.66667 11.7334H4.26667V10.6668H2.66667C2.37212 10.6668 2.13333 10.4279 2.13333 10.1334V2.66673C2.13333 2.37218 2.37212 2.1334 2.66667 2.1334H10.1333C10.4279 2.1334 10.6667 2.37218 10.6667 2.66673V4.26669H5.86667C4.98302 4.26669 4.26667 4.98303 4.26667 5.86669V13.3333C4.26667 14.217 4.98302 14.9333 5.86667 14.9333H13.3333C14.217 14.9333 14.9333 14.217 14.9333 13.3333V5.86669C14.9333 4.98303 14.217 4.26669 13.3333 4.26669H11.7333V2.66673C11.7333 1.78307 11.017 1.06673 10.1333 1.06673H2.66667C1.78301 1.06673 1.06667 1.78307 1.06667 2.66673V10.1334ZM5.33333 5.86669C5.33333 5.57214 5.57212 5.33335 5.86667 5.33335H13.3333C13.6278 5.33335 13.8667 5.57214 13.8667 5.86669V13.3333C13.8667 13.6279 13.6278 13.8667 13.3333 13.8667H5.86667C5.57212 13.8667 5.33333 13.6279 5.33333 13.3333V5.86669Z"
        fill="white" />
</svg>
