<svg width="20" height="20" viewBox="0 0 20 20" fill="none" xmlns="http://www.w3.org/2000/svg">
    <path
        d="M2.03875 15.155C0.554999 14.7294 0.309374 13.8525 0.982499 13.3431C1.4675 13.0244 2.025 12.7469 2.615 12.5381L2.66937 12.5212L7.055 10.9487V12.755L3.91125 13.9044C3.36062 14.1163 3.26687 14.3981 3.72437 14.5494C3.9525 14.6075 4.21375 14.6413 4.48312 14.6413C4.8675 14.6413 5.23562 14.5731 5.57625 14.4487L5.55437 14.4556L7.06812 13.9044V15.5244C6.97437 15.5475 6.86812 15.5587 6.76375 15.5812C6.27937 15.6662 5.72187 15.715 5.15312 15.715C4.04187 15.715 2.97437 15.5287 1.97937 15.1862L2.04812 15.2069L2.03875 15.155ZM11.2806 15.34L16.1981 13.5631C16.7562 13.3619 16.8431 13.075 16.39 12.9244C16.1631 12.8687 15.9031 12.8369 15.635 12.8369C15.2463 12.8369 14.8725 12.9044 14.5262 13.0275L14.5494 13.0206L11.265 14.1919V12.3275L11.4525 12.2612C12.1087 12.0431 12.88 11.8737 13.6756 11.7856L13.7275 11.7806C14.02 11.7494 14.3587 11.7319 14.7019 11.7319C15.875 11.7319 17 11.9387 18.0412 12.3187L17.9737 12.2969C19.4169 12.7662 19.5669 13.4462 19.2044 13.915C18.855 14.2631 18.4325 14.5387 17.9619 14.7162L17.9375 14.7244L11.2644 17.1512V15.3581L11.2806 15.34ZM7.64437 2.655V16.3594L10.7019 17.3444V5.85063C10.7019 5.31188 10.9394 4.95188 11.3219 5.07688C11.8187 5.2175 11.9156 5.7125 11.9156 6.2525V10.8413C13.8219 11.7731 15.3225 10.8394 15.3225 8.37937C15.3225 5.85125 14.4431 4.72813 11.8562 3.82813C10.7406 3.42313 9.33125 3.01938 7.88937 2.7L7.64625 2.655H7.64437Z"
        fill="white" />
</svg>
