<svg width="20" height="20" viewBox="0 0 20 20" fill="none" xmlns="http://www.w3.org/2000/svg">
    <g clip-path="url(#clip0_2_2691)">
        <path
            d="M11.3137 7.58063C11.3137 6.60313 12.1062 5.81063 13.0831 5.81063C14.06 5.81063 14.8525 6.60313 14.8525 7.58C14.8525 8.5575 14.0606 9.34938 13.0831 9.34938C13.0831 9.34938 13.0831 9.34938 13.0825 9.34938C12.1056 9.34938 11.3137 8.5575 11.3137 7.58063C11.3137 7.58063 11.3131 7.58063 11.3131 7.58L11.3137 7.58063ZM15.4319 7.58438C15.4319 6.28375 14.3775 5.22938 13.0769 5.22938C11.7762 5.22938 10.7219 6.28375 10.7219 7.58438C10.7219 8.885 11.7762 9.93938 13.0769 9.93938C14.3769 9.9375 15.43 8.88375 15.4319 7.58438ZM6.51687 14.85L5.36625 14.3738C5.69375 15.0475 6.37312 15.5038 7.15875 15.5038C7.98187 15.5038 8.68875 15.0031 8.99 14.2894L8.995 14.2763C9.09187 14.05 9.14875 13.7863 9.14875 13.51C9.14875 12.4119 8.25875 11.5219 7.16062 11.5219C6.9075 11.5219 6.66562 11.5694 6.44312 11.655L6.45687 11.6506L7.64625 12.1425C8.17875 12.37 8.54562 12.89 8.54562 13.495C8.54562 14.305 7.88875 14.9619 7.07875 14.9619C6.87625 14.9619 6.68375 14.9206 6.50812 14.8469L6.5175 14.8506L6.51687 14.85ZM9.98375 0.627502C5.07312 0.628127 1.04562 4.40625 0.647497 9.21375L0.644997 9.2475L5.66875 11.3238C6.08625 11.035 6.60312 10.8631 7.16062 10.8631C7.16125 10.8631 7.16187 10.8631 7.16187 10.8631C7.21125 10.8631 7.25937 10.8663 7.30875 10.8681L9.54312 7.63313V7.58688C9.545 5.63688 11.1262 4.05688 13.0762 4.05688C15.0275 4.05688 16.6094 5.63875 16.6094 7.59C16.6094 9.54125 15.0275 11.1231 13.0762 11.1231H12.9944L9.81062 13.3969C9.81062 13.4375 9.81375 13.4788 9.81375 13.5213C9.81375 13.5219 9.81375 13.5225 9.81375 13.5231C9.81375 14.9869 8.62687 16.1738 7.16312 16.1738C5.88375 16.1738 4.81562 15.2669 4.5675 14.0613L4.56437 14.0444L0.967497 12.555C2.11812 16.5206 5.71812 19.3706 9.98312 19.3706C15.1587 19.3706 19.3544 15.175 19.3544 9.99938C19.3544 4.82375 15.1587 0.628127 9.98312 0.628127L9.98375 0.627502Z"
            fill="white" />
    </g>
    <defs>
        <clipPath id="clip0_2_2691">
            <rect width="20" height="20" fill="white" />
        </clipPath>
    </defs>
</svg>
