<svg width="20" height="20" viewBox="0 0 20 20" fill="none" xmlns="http://www.w3.org/2000/svg">
    <g clip-path="url(#clip0_2_2700)">
        <path
            d="M10 3.39062C8.82 2.6875 7.43375 2.18937 5.95438 1.985L5.89688 1.97875C5.85313 1.97562 5.80188 1.97375 5.75063 1.97375C5.3675 1.97375 5.00813 2.07375 4.69625 2.24937L4.70688 2.24375C6.18 1.2225 8.005 0.612499 9.97313 0.612499C9.97813 0.612499 9.98313 0.612499 9.98813 0.612499H10C10.0031 0.612499 10.0069 0.612499 10.0113 0.612499C11.9844 0.612499 13.815 1.2225 15.3244 2.26375L15.2931 2.24312C14.9944 2.07312 14.6363 1.9725 14.2544 1.9725C14.2013 1.9725 14.1488 1.97437 14.0969 1.97812L14.1038 1.9775C12.5669 2.1875 11.1806 2.68375 9.94875 3.41312L10 3.385V3.39062ZM3.47125 3.2925C3.44563 3.30125 3.42313 3.3125 3.4025 3.32625L3.40375 3.32562C1.68 5.0275 0.612503 7.39062 0.612503 10.0031C0.612503 12.2431 1.3975 14.3 2.70813 15.9137L2.69438 15.8962C1.59813 13.8581 5.49438 8.11187 7.45063 5.79687C5.24438 3.59625 4.1525 3.25812 3.69125 3.25812C3.685 3.25812 3.67813 3.2575 3.67125 3.2575C3.59938 3.2575 3.53063 3.27062 3.4675 3.295L3.47125 3.29375V3.2925ZM12.5519 5.79687C14.5075 8.11312 18.4063 13.8644 17.305 15.8975C18.6019 14.3012 19.3875 12.2444 19.3875 10.0037C19.3875 7.39062 18.3194 5.0275 16.5956 3.32625L16.5944 3.325C16.5763 3.31187 16.555 3.30062 16.5319 3.2925L16.53 3.29187C16.4675 3.26937 16.395 3.25687 16.32 3.25687C16.3169 3.25687 16.3131 3.25687 16.31 3.25687C15.8469 3.25687 14.7575 3.59687 12.5519 5.79687ZM3.82125 17.0662C5.46313 18.5075 7.62938 19.3875 10.0013 19.3875C12.3731 19.3875 14.5394 18.5081 16.1919 17.0575L16.1813 17.0669C17.6494 15.5712 12.805 10.2537 10 8.13562C7.19813 10.2544 2.35 15.5706 3.82125 17.0662Z"
            fill="white" />
    </g>
    <defs>
        <clipPath id="clip0_2_2700">
            <rect width="20" height="20" fill="white" />
        </clipPath>
    </defs>
</svg>
